<svg xmlns="http://www.w3.org/2000/svg" version="1.0" preserveAspectRatio="xMidYMid meet" viewBox="76 202 348 96">

<g transform="translate(0.000000,500.000000) scale(0.100000,-0.100000)" fill="#000000" stroke="none">
<path d="M760 2500 l0 -480 1740 0 1740 0 0 480 0 480 -1740 0 -1740 0 0 -480z m3450 0 l0 -450 -1715 0 -1715 0 0 450 0 450 1715 0 1715 0 0 -450z"/>
<path d="M850 2500 l0 -390 825 0 825 0 0 390 0 390 -825 0 -825 0 0 -390z m427 129 c29 -11 83 -57 83 -71 0 -17 -30 -7 -54 17 -60 60 -166 12 -166 -75 0 -87 106 -135 165 -75 40 39 33 55 -25 55 -38 0 -50 4 -50 15 0 12 14 15 70 15 78 0 81 -4 56 -64 -29 -70 -115 -98 -186 -61 -66 34 -85 144 -34 204 36 43 92 59 141 40z m224 -59 c18 -33 37 -60 41 -60 4 0 22 27 40 60 21 38 40 60 51 60 9 0 17 -2 17 -5 0 -2 -20 -38 -45 -78 -38 -63 -45 -83 -45 -126 0 -44 -3 -51 -20 -51 -17 0 -20 7 -20 53 0 33 -7 63 -18 82 -72 118 -75 125 -55 125 13 0 30 -20 54 -60z m383 -57 c27 -65 51 -124 53 -130 11 -27 -27 -11 -42 17 -15 28 -19 30 -78 30 -60 0 -63 -1 -74 -30 -6 -17 -19 -30 -28 -30 -20 0 -23 -10 42 148 32 80 51 112 62 112 12 0 31 -34 65 -117z m233 20 l68 -98 3 98 c2 77 6 97 17 97 12 0 15 -23 15 -130 0 -103 -3 -130 -14 -130 -7 0 -45 46 -85 101 l-71 102 0 -102 c0 -83 -3 -101 -15 -101 -13 0 -15 21 -15 130 0 107 3 130 15 130 7 0 45 -44 82 -97z"/>
<path d="M1791 2518 c-12 -28 -19 -53 -17 -55 2 -2 24 -3 49 -1 l44 3 -20 53 c-11 28 -23 52 -27 52 -4 0 -17 -23 -29 -52z"/>
<path d="M2774 2631 c-86 -39 -99 -158 -26 -224 50 -45 153 -37 197 15 14 16 25 36 25 44 0 19 -67 19 -86 -1 -20 -20 -68 -19 -88 1 -19 19 -21 64 -3 87 21 28 62 32 86 8 24 -24 91 -30 91 -7 0 23 -42 68 -76 82 -44 18 -71 17 -120 -5z"/>
<path d="M3080 2632 c-73 -36 -100 -123 -60 -189 28 -46 61 -64 118 -65 92 0 146 52 144 140 -1 100 -109 161 -202 114z m105 -77 c27 -26 31 -46 14 -76 -23 -45 -103 -40 -115 7 -9 36 4 74 29 84 35 14 46 12 72 -15z"/>
<path d="M3880 2637 c-71 -36 -61 -114 19 -143 61 -23 77 -37 58 -53 -15 -12 -47 -5 -47 10 0 5 -18 9 -41 9 -37 0 -40 -2 -34 -22 9 -31 42 -58 74 -60 86 -4 131 22 131 77 0 40 -31 69 -87 84 -26 7 -43 18 -43 27 0 22 28 28 49 10 15 -14 81 -24 81 -12 0 26 -26 60 -55 71 -42 18 -72 19 -105 2z"/>
<path d="M3330 2510 l0 -130 71 0 c110 0 159 32 174 112 9 47 -16 103 -57 128 -26 15 -50 20 -110 20 l-78 0 0 -130z m152 43 c40 -36 9 -103 -48 -103 l-34 0 0 60 0 60 32 0 c17 0 40 -7 50 -17z"/>
<path d="M3620 2510 l0 -130 90 0 90 0 0 30 c0 30 -1 30 -55 30 -48 0 -55 2 -55 20 0 17 7 20 50 20 49 0 50 1 50 30 0 29 -1 30 -50 30 -43 0 -50 3 -50 20 0 18 7 20 55 20 54 0 55 0 55 30 l0 30 -90 0 -90 0 0 -130z"/>
</g>
</svg>